<svg width="14" height="8" viewBox="0 0 14 8" fill="none" xmlns="http://www.w3.org/2000/svg">
<g clip-path="url(#clip0_514_789)">
<path d="M0.278131 1.6422L6.36713 7.8052C6.42764 7.86688 6.49984 7.91588 6.57951 7.94932C6.65918 7.98277 6.74472 8 6.83113 8C6.91754 8 7.00308 7.98277 7.08275 7.94932C7.16242 7.91588 7.23462 7.86688 7.29513 7.8052L13.3891 1.6422C13.5672 1.46066 13.667 1.2165 13.667 0.962196C13.667 0.707889 13.5672 0.463731 13.3891 0.282197C13.3013 0.193185 13.1967 0.122507 13.0813 0.074266C12.966 0.0260253 12.8422 0.00118351 12.7171 0.00118351C12.5921 0.00118351 12.4683 0.0260253 12.3529 0.074266C12.2376 0.122507 12.1329 0.193185 12.0451 0.282197L6.83313 5.5542L1.62313 0.281197C1.5353 0.192033 1.43061 0.121226 1.31515 0.072896C1.1997 0.0245657 1.07579 -0.000323296 0.95063 -0.000323296C0.82547 -0.000323296 0.70156 0.0245657 0.586107 0.072896C0.470654 0.121226 0.365966 0.192033 0.278131 0.281197C0.100037 0.462731 0.000268936 0.706889 0.000268936 0.961196C0.000268936 1.2155 0.100037 1.45966 0.278131 1.6412" fill="#4BDE95"/>
</g>
<defs>
<clipPath id="clip0_514_789">
<rect width="8" height="13.667" fill="white" transform="matrix(0 1 1 0 0 0)"/>
</clipPath>
</defs>
</svg>
