<svg width="14" height="14" viewBox="-1 0 14 14" fill="none" xmlns="http://www.w3.org/2000/svg">
  <g clip-path="url(#clip0_514_813)">
    <path
      d="M4.6422 0.277154L10.8052 6.36615C10.8669 6.42666 10.9159 6.49887 10.9493 6.57854C10.9828 6.65821 11 6.74375 11 6.83015C11 6.91656 10.9828 7.0021 10.9493 7.08177C10.9159 7.16144 10.8669 7.23364 10.8052 7.29415L4.6422 13.3882C4.46066 13.5662 4.2165 13.666 3.9622 13.666C3.70789 13.666 3.46373 13.5662 3.2822 13.3882C3.19318 13.3003 3.12251 13.1957 3.07427 13.0803C3.02603 12.965 3.00118 12.8412 3.00118 12.7162C3.00118 12.5911 3.02603 12.4673 3.07427 12.352C3.12251 12.2366 3.19318 12.132 3.2822 12.0442L8.5542 6.83215L3.2812 1.62215C3.19203 1.53432 3.12123 1.42963 3.0729 1.31418C3.02457 1.19872 2.99968 1.07481 2.99968 0.949654C2.99968 0.824493 3.02457 0.700583 3.0729 0.585131C3.12123 0.469678 3.19203 0.364989 3.2812 0.277154C3.46273 0.0990601 3.70689 -0.000707626 3.9612 -0.000707626C4.2155 -0.000707626 4.45966 0.0990601 4.6412 0.277154"
    />
  </g>
</svg>