<svg width="14" height="14" viewBox="0 -1 14 14" fill="none" xmlns="http://www.w3.org/2000/svg">
  <g clip-path="url(#clip0_514_860)">
    <path
      d="M0.278131 4.6422L6.36713 10.8052C6.42764 10.8669 6.49984 10.9159 6.57951 10.9493C6.65918 10.9828 6.74472 11 6.83113 11C6.91754 11 7.00308 10.9828 7.08275 10.9493C7.16242 10.9159 7.23462 10.8669 7.29513 10.8052L13.3891 4.6422C13.5672 4.46066 13.667 4.2165 13.667 3.9622C13.667 3.70789 13.5672 3.46373 13.3891 3.2822C13.3013 3.19318 13.1967 3.12251 13.0813 3.07427C12.966 3.02603 12.8422 3.00118 12.7171 3.00118C12.5921 3.00118 12.4683 3.02603 12.3529 3.07427C12.2376 3.12251 12.1329 3.19318 12.0451 3.2822L6.83313 8.5542L1.62313 3.2812C1.5353 3.19203 1.43061 3.12123 1.31515 3.0729C1.1997 3.02457 1.07579 2.99968 0.95063 2.99968C0.82547 2.99968 0.70156 3.02457 0.586107 3.0729C0.470654 3.12123 0.365966 3.19203 0.278131 3.2812C0.100037 3.46273 0.000268936 3.70689 0.000268936 3.9612C0.000268936 4.2155 0.100037 4.45966 0.278131 4.6412"
    />
  </g>
</svg>