<svg width="12" height="12" viewBox="0 0 12 12" fill="none" xmlns="http://www.w3.org/2000/svg">
<path fill-rule="evenodd" clip-rule="evenodd" d="M9.33342 1.01118C8.34672 0.351894 7.18669 0 6 0C4.4087 0 2.88258 0.63214 1.75736 1.75736C0.63214 2.88258 0 4.4087 0 6C0 7.18669 0.351894 8.34672 1.01118 9.33342C1.67047 10.3201 2.60754 11.0892 3.7039 11.5433C4.80026 11.9974 6.00665 12.1162 7.17054 11.8847C8.33442 11.6532 9.40353 11.0818 10.2426 10.2426C11.0818 9.40353 11.6532 8.33442 11.8847 7.17054C12.1162 6.00665 11.9974 4.80026 11.5433 3.7039C11.0892 2.60754 10.3201 1.67047 9.33342 1.01118ZM7.54796 9.69973L7.65873 9.24373L7.65135 9.2465C7.56162 9.28453 7.46902 9.31539 7.37442 9.33881C7.26257 9.37199 7.14676 9.39 7.03012 9.39235C6.87066 9.40689 6.71076 9.36967 6.57412 9.28619C6.52426 9.23291 6.48668 9.16934 6.46403 9.09996C6.44139 9.03059 6.43422 8.95709 6.44304 8.88465C6.44752 8.76895 6.46142 8.6538 6.48458 8.54035C6.50785 8.40337 6.53867 8.26778 6.57688 8.13419L6.99319 6.65727C7.03572 6.51145 7.06385 6.36181 7.07719 6.2105C7.09196 6.04896 7.09935 5.93542 7.09935 5.87081C7.10445 5.72825 7.07787 5.58634 7.02152 5.4553C6.96518 5.32425 6.88047 5.20733 6.7735 5.11296C6.50989 4.90295 6.17753 4.79863 5.84119 4.82035C5.59958 4.82346 5.35987 4.86363 5.13042 4.93942C4.88058 5.01819 4.61842 5.11358 4.34396 5.22558L4.23227 5.6825C4.25415 5.67554 4.27724 5.66804 4.30153 5.66015C4.36742 5.63875 4.44218 5.61447 4.52581 5.59019C4.63352 5.5572 4.74547 5.5401 4.85811 5.53942C5.0159 5.52191 5.17474 5.56154 5.30581 5.65112C5.35042 5.70618 5.38373 5.76949 5.40385 5.83744C5.42397 5.90539 5.43048 5.97664 5.42304 6.04712C5.42172 6.16376 5.40904 6.28 5.38519 6.39419C5.36119 6.52158 5.33042 6.65604 5.29288 6.79758L4.87473 8.2745C4.83873 8.4305 4.81104 8.56988 4.7935 8.69265C4.77734 8.81291 4.76902 8.93409 4.76858 9.05542C4.7652 9.19826 4.79368 9.34006 4.85196 9.47051C4.91024 9.60096 4.99685 9.71679 5.1055 9.80958C5.3735 10.0217 5.71051 10.1273 6.05165 10.1059C6.2875 10.1096 6.52235 10.0743 6.74673 10.0016C6.94612 9.93327 7.21381 9.83265 7.54796 9.69973ZM7.68327 3.41398C7.73361 3.30057 7.75892 3.17765 7.7575 3.05358H7.75842C7.75917 2.92975 7.73355 2.80717 7.68326 2.69401C7.63296 2.58085 7.55915 2.47969 7.46673 2.39727C7.27467 2.22109 7.02351 2.12335 6.76288 2.12335C6.50225 2.12335 6.2511 2.22109 6.05904 2.39727C5.96583 2.47921 5.89131 2.58021 5.84051 2.69344C5.78971 2.80666 5.76381 2.92948 5.76458 3.05358C5.76313 3.17792 5.78871 3.30109 5.83956 3.41456C5.8904 3.52804 5.96529 3.62912 6.05904 3.71081C6.25163 3.88555 6.50237 3.98235 6.76242 3.98235C7.02247 3.98235 7.27322 3.88555 7.46581 3.71081C7.55877 3.62863 7.63294 3.52739 7.68327 3.41398Z" fill="#C6C6C6"/>
</svg>
